<svg width="1975" height="732" viewBox="0 0 975 732" fill="none" xmlns="http://www.w3.org/2000/svg">
<rect width="975" height="732" fill="#E5E5E5"/>
<g id="undraw_inspiration_lecl 1">
<g clip-path="url(#clip0)">
<path id="Vector" d="M450.434 689.714C476.918 686.259 502.382 683.323 526.825 680.904L517.422 665.14C520.69 664.23 534.841 673.355 534.841 673.355L522.89 627.765C539.224 629.599 546.818 676.097 546.818 676.097L565.341 660.61L556.217 678.152C631.014 671.618 695.555 669.604 749.808 670.108L741.76 656.615C745.028 655.705 759.179 664.83 759.179 664.83L747.228 619.241C763.561 621.074 771.156 667.573 771.156 667.573L789.678 652.086L780.015 670.665C825.483 671.931 862.532 674.942 891.112 678.222C883.087 657.253 855.027 637.083 855.027 637.083C876.608 642.718 887.832 651.883 893.639 660.376C894.794 616.962 886.857 573.785 870.336 533.621C870.336 533.621 913.846 615.695 907.279 670.39L906.444 680.106C944.337 685.078 963.35 690.024 963.35 690.024L450.434 689.714Z" fill="#3F3D56"/>
<path id="Vector_2" d="M487.457 732C756.672 732 974.915 715.026 974.915 694.087C974.915 673.148 756.672 656.173 487.457 656.173C218.242 656.173 0 673.148 0 694.087C0 715.026 218.242 732 487.457 732Z" fill="#3F3D56"/>
<g id="guy">
<path id="Vector_3" d="M326.024 117.792C326.024 117.792 336.996 142.142 312.31 153.676C287.623 165.21 378.141 186.997 387.741 158.802C387.741 158.802 363.054 149.831 374.026 122.918L326.024 117.792Z" fill="#FFB9B9"/>
<path id="Vector_4" d="M355.512 620.811L354.14 647.725L377.454 651.569V624.656L355.512 620.811Z" fill="#FFB9B9"/>
<path id="Vector_5" d="M267.737 620.811L269.109 647.725L245.793 651.569V624.656L267.737 620.811Z" fill="#FFB9B9"/>
<path id="Vector_6" d="M352.768 132.53C373.977 132.53 391.17 116.464 391.17 96.6455C391.17 76.8272 373.977 60.7613 352.768 60.7613C331.56 60.7613 314.367 76.8272 314.367 96.6455C314.367 116.464 331.56 132.53 352.768 132.53Z" fill="#FFB9B9"/>
<path id="Vector_7" d="M406.256 356.806L404.884 367.058L411.742 391.408L421.342 369.622L406.256 356.806Z" fill="#FFB9B9"/>
<path id="Vector_8" d="M254.022 360.651L245.793 451.643C245.793 451.643 236.193 468.303 241.679 482.401C241.679 482.401 233.45 501.625 236.193 508.032C238.936 514.44 240.307 520.848 237.564 523.411C234.821 525.975 233.45 597.743 237.564 604.151C241.679 610.559 244.422 625.938 244.422 625.938C244.422 625.938 267.737 631.064 273.223 616.967C278.709 602.869 275.966 601.588 281.451 597.743C286.937 593.898 286.937 540.072 286.937 540.072C286.937 540.072 280.08 533.664 284.194 531.101C288.309 528.538 291.052 531.101 286.937 524.693C282.823 518.285 275.966 518.285 282.823 515.722C286.644 514.338 290.317 512.622 293.795 510.596L333.568 413.196C333.568 413.196 348.654 522.13 351.397 527.256C354.14 532.382 358.254 525.975 354.14 532.382C350.025 538.79 348.654 534.946 350.025 538.79C351.397 542.635 341.796 597.743 347.282 609.277C350.484 615.944 353.233 622.792 355.511 629.782C355.511 629.782 377.455 638.754 380.198 632.346C382.941 625.938 381.569 614.404 385.684 613.122C389.798 611.84 393.913 609.277 393.913 599.025C393.913 588.772 402.141 538.79 402.141 538.79C402.141 538.79 392.541 534.946 395.284 528.538C398.027 522.13 398.027 523.411 396.656 518.285C395.284 513.159 392.541 511.877 395.284 508.032C398.027 504.188 398.027 492.653 398.027 492.653L414.485 391.409L401.776 356.806L254.022 360.651Z" fill="#2F2E41"/>
<path id="Vector_9" d="M356.883 641.317C356.883 641.317 352.768 637.472 351.397 641.317C350.025 645.161 350.025 681.046 350.025 681.046C350.025 681.046 360.997 688.735 360.997 692.58C360.997 696.425 369.226 709.24 388.427 706.677C388.619 706.652 388.809 706.625 388.997 706.597C391.776 706.176 394.413 705.156 396.699 703.619C398.984 702.081 400.856 700.068 402.165 697.739C403.475 695.409 404.187 692.827 404.244 690.196C404.302 687.565 403.704 684.957 402.498 682.58L382.941 643.88C382.941 643.88 369.226 631.064 356.883 641.317Z" fill="#2F2E41"/>
<path id="Vector_10" d="M266.365 641.317C266.365 641.317 270.48 637.472 271.851 641.317C273.223 645.161 273.223 681.046 273.223 681.046C273.223 681.046 262.251 688.735 262.251 692.58C262.251 696.425 254.022 709.24 234.821 706.677C234.629 706.652 234.439 706.625 234.251 706.597C231.472 706.176 228.835 705.156 226.549 703.619C224.264 702.081 222.392 700.068 221.083 697.739C219.773 695.409 219.062 692.827 219.004 690.196C218.946 687.565 219.544 684.957 220.75 682.58L240.307 643.88C240.307 643.88 254.022 631.064 266.365 641.317Z" fill="#2F2E41"/>
<path id="Vector_11" d="M323.5 57.7771L316.639 55.2104C316.639 55.2104 330.985 40.4517 350.945 41.7351L345.331 35.9599C345.331 35.9599 359.053 30.8265 371.528 44.3018C378.085 51.3855 385.673 59.7119 390.403 69.0916H397.75L394.684 75.4014L405.417 81.7113L394.4 80.5779C395.444 86.0253 395.087 91.6266 393.358 96.9197L393.654 101.907C393.654 101.907 380.884 83.4443 380.884 80.8776V87.2944C380.884 87.2944 374.023 81.5193 374.023 77.6692L370.28 82.161L368.409 75.1025L345.331 82.161L349.073 76.3859L334.727 78.3109L340.341 71.2524C340.341 71.2524 324.124 79.5942 323.5 86.6528C322.877 93.7112 314.768 102.695 314.768 102.695L311.026 96.278C311.026 96.278 305.412 67.4023 323.5 57.7771Z" fill="#2F2E41"/>
<path id="Vector_12" d="M345.225 162.647C345.225 162.647 321.91 161.855 314.367 152.639C314.367 152.639 265.68 167.773 260.194 180.589C254.708 193.405 279.394 251.076 279.394 251.076C279.394 251.076 236.879 368.981 257.451 368.981C278.023 368.981 324.653 384.36 352.083 375.389C369.079 369.881 386.502 365.596 404.199 362.573C404.199 362.573 406.942 327.971 404.199 321.563C401.456 315.155 394.598 318.999 398.713 310.028C402.827 301.057 401.456 299.776 400.084 295.931C398.713 292.086 402.827 286.96 402.827 281.834C402.827 276.707 401.456 265.173 401.456 265.173C401.456 265.173 438.486 184.434 430.257 176.744C422.028 169.055 380.141 154.239 380.141 154.239C380.141 154.239 368.54 167.773 345.225 162.647Z" fill="#3F3D56"/>
<path id="Vector_13" d="M411.742 176.103H427.022C428.145 176.103 429.234 176.459 430.111 177.115C430.988 177.77 431.601 178.684 431.847 179.708C434.205 189.464 440.281 217.12 439.171 238.901C437.8 265.814 440.543 285.038 439.171 288.882C437.8 292.727 439.171 294.009 439.171 297.853C439.171 301.698 443.286 299.135 439.171 304.261C435.057 309.388 435.057 308.106 435.057 311.951C435.057 315.796 421.342 374.748 421.342 374.748C421.342 374.748 411.913 360.267 401.542 363.022L403.513 310.669L406.256 288.882L402.141 250.435L411.742 176.103Z" fill="#3F3D56"/>
<path id="Vector_14" d="M269.108 176.103L264.237 178.379C262.342 179.265 260.691 180.549 259.414 182.13C258.138 183.712 257.27 185.548 256.879 187.495L237.564 283.756C237.564 283.756 232.078 295.29 232.078 296.572C232.078 297.853 234.821 297.853 232.078 301.698C229.335 305.543 225.221 304.261 227.964 306.825C229.53 308.154 230.508 309.982 230.707 311.951L233.45 374.748C233.45 374.748 256.765 368.34 263.622 374.748C263.622 374.748 256.765 355.524 260.879 349.117C264.994 342.709 264.994 333.738 264.994 333.738C264.994 333.738 262.251 333.738 269.108 327.33C275.966 320.922 277.337 318.359 275.966 317.077C274.594 315.796 273.223 304.261 273.223 302.98C273.223 301.698 286.937 215.832 286.937 215.832L269.108 176.103Z" fill="#3F3D56"/>
<path id="Vector_15" d="M237.564 369.622C237.564 369.622 225.221 429.856 245.793 424.73C266.365 419.604 256.765 369.622 256.765 369.622H237.564Z" fill="#FFB9B9"/>
</g>
<g id="ballooms">
<path id="Vector_16" d="M565.031 64.1288C575.284 64.1288 583.596 55.8173 583.596 45.5644C583.596 35.3116 575.284 27 565.031 27C554.779 27 546.467 35.3116 546.467 45.5644C546.467 55.8173 554.779 64.1288 565.031 64.1288Z" fill="#6C63FF"/>
<path id="Vector_17" d="M428.273 677.513C438.525 677.513 446.837 669.201 446.837 658.948C446.837 648.695 438.525 640.384 428.273 640.384C418.02 640.384 409.708 648.695 409.708 658.948C409.708 669.201 418.02 677.513 428.273 677.513Z" fill="#3F3D56"/>
<path id="Vector_18" d="M423.322 652.114C427.474 649.107 429.731 645.139 428.364 643.252C426.997 641.365 422.524 642.273 418.372 645.281C414.22 648.288 411.963 652.256 413.33 654.143C414.697 656.03 419.171 655.122 423.322 652.114Z" fill="white"/>
<path id="Vector_19" d="M585.342 430.114C601.794 430.114 615.131 416.777 615.131 400.325C615.131 383.873 601.794 370.536 585.342 370.536C568.89 370.536 555.553 383.873 555.553 400.325C555.553 416.777 568.89 430.114 585.342 430.114Z" fill="#3F3D56"/>
<path id="Vector_20" d="M565.031 415.22C568.77 415.22 571.802 408.551 571.802 400.325C571.802 392.099 568.77 385.43 565.031 385.43C561.292 385.43 558.261 392.099 558.261 400.325C558.261 408.551 561.292 415.22 565.031 415.22Z" fill="white"/>
<path id="Vector_21" d="M489.205 239.193C505.657 239.193 518.994 225.856 518.994 209.404C518.994 192.952 505.657 179.615 489.205 179.615C472.753 179.615 459.416 192.952 459.416 209.404C459.416 225.856 472.753 239.193 489.205 239.193Z" fill="#6C63FF"/>
<path id="Vector_22" d="M481.261 198.438C487.923 193.613 491.546 187.246 489.352 184.218C487.159 181.19 479.98 182.647 473.318 187.473C466.656 192.298 463.034 198.665 465.227 201.693C467.421 204.721 474.6 203.264 481.261 198.438Z" fill="white"/>
<path id="Vector_23" d="M491.913 384.598C508.365 384.598 521.702 371.261 521.702 354.809C521.702 338.357 508.365 325.02 491.913 325.02C475.461 325.02 462.124 338.357 462.124 354.809C462.124 371.261 475.461 384.598 491.913 384.598Z" fill="#3F3D56"/>
<path id="Vector_24" d="M483.969 333.843C490.631 329.018 494.254 322.651 492.06 319.623C489.867 316.595 482.688 318.052 476.026 322.878C469.364 327.703 465.742 334.07 467.935 337.098C470.129 340.126 477.308 338.669 483.969 333.843Z" fill="white"/>
<path id="Vector_25" d="M567.739 199.534C577.992 199.534 586.304 191.222 586.304 180.969C586.304 170.716 577.992 162.405 567.739 162.405C557.487 162.405 549.175 170.716 549.175 180.969C549.175 191.222 557.487 199.534 567.739 199.534Z" fill="#3F3D56"/>
<path id="Vector_26" d="M562.789 174.135C566.941 171.128 569.198 167.16 567.831 165.273C566.464 163.386 561.991 164.294 557.839 167.302C553.687 170.309 551.43 174.277 552.797 176.164C554.164 178.051 558.638 177.143 562.789 174.135Z" fill="white"/>
<path id="Vector_27" d="M588.05 565.519C604.502 565.519 617.839 552.182 617.839 535.73C617.839 519.278 604.502 505.941 588.05 505.941C571.598 505.941 558.261 519.278 558.261 535.73C558.261 552.182 571.598 565.519 588.05 565.519Z" fill="#6C63FF"/>
<path id="Vector_28" d="M567.739 550.624C571.479 550.624 574.51 543.956 574.51 535.73C574.51 527.504 571.479 520.835 567.739 520.835C564 520.835 560.969 527.504 560.969 535.73C560.969 543.956 564 550.624 567.739 550.624Z" fill="white"/>
<path id="Vector_29" d="M425.564 542.108C435.817 542.108 444.129 533.796 444.129 523.543C444.129 513.291 435.817 504.979 425.564 504.979C415.312 504.979 407 513.291 407 523.543C407 533.796 415.312 542.108 425.564 542.108Z" fill="#3F3D56"/>
</g>
<path id="Vector_30" d="M795.292 21.0613C799.444 18.0539 801.701 14.0862 800.334 12.1991C798.967 10.312 794.494 11.2201 790.342 14.2274C786.19 17.2348 783.933 21.2025 785.3 23.0896C786.667 24.9767 791.141 24.0686 795.292 21.0613Z" fill="white"/>
<path id="Vector_31" d="M655.825 499.04C659.977 496.033 662.234 492.065 660.867 490.178C659.5 488.291 655.027 489.199 650.875 492.206C646.723 495.214 644.466 499.181 645.833 501.069C647.2 502.956 651.673 502.048 655.825 499.04Z" fill="white"/>
<path id="Vector_32" d="M175.105 690.21C220.451 690.21 257.21 653.451 257.21 608.105C257.21 562.76 220.451 526 175.105 526C129.76 526 93 562.76 93 608.105C93 653.451 129.76 690.21 175.105 690.21Z" fill="#6C63FF"/>
<path id="Vector_33" d="M229.49 724.164C213.726 724.165 178.914 707.973 147.954 689.01C109.536 665.479 72.2237 634.722 78.7466 624.072C80.5904 621.062 85.1602 620.275 92.7198 621.663L92.1778 624.614C86.3238 623.537 82.3624 623.913 81.3052 625.638C79.7632 628.156 83.1631 635.464 97.3287 648.426C110.238 660.24 128.773 673.744 149.522 686.452C170.269 699.16 190.721 709.536 207.109 715.668C225.093 722.399 233.148 722.105 234.689 719.589C235.748 717.861 234.277 714.157 230.653 709.425L233.035 707.601C237.714 713.711 239.092 718.145 237.248 721.156C235.981 723.224 233.288 724.164 229.49 724.164Z" fill="#3F3D56"/>
<path id="Vector_34" d="M174.794 661.588C184.069 661.588 191.588 654.069 191.588 644.794C191.588 635.519 184.069 628 174.794 628C165.519 628 158 635.519 158 644.794C158 654.069 165.519 661.588 174.794 661.588Z" fill="white"/>
<path id="Vector_35" d="M137.196 662.392C143.38 662.392 148.392 657.38 148.392 651.196C148.392 645.013 143.38 640 137.196 640C131.013 640 126 645.013 126 651.196C126 657.38 131.013 662.392 137.196 662.392Z" fill="white"/>
<path id="Vector_36" d="M205.196 601.392C211.38 601.392 216.392 596.38 216.392 590.196C216.392 584.013 211.38 579 205.196 579C199.013 579 194 584.013 194 590.196C194 596.38 199.013 601.392 205.196 601.392Z" fill="white"/>
<g id="heart">
<path id="Vector_37" d="M616.485 214.258C613.85 212.011 610.798 210.304 607.504 209.236C604.21 208.168 600.737 207.76 597.285 208.034C593.833 208.308 590.468 209.259 587.383 210.833C584.299 212.407 581.554 214.574 579.307 217.209C577.06 219.844 575.353 222.895 574.285 226.19C573.217 229.484 572.809 232.956 573.083 236.409C573.357 239.861 574.308 243.226 575.882 246.31C577.457 249.395 579.623 252.139 582.258 254.387L622.387 288.614L656.614 248.485C661.152 243.164 663.391 236.257 662.838 229.285C662.285 222.313 658.984 215.846 653.663 211.307C648.341 206.768 641.435 204.529 634.463 205.083C627.491 205.636 621.024 208.937 616.485 214.258Z" fill="#FF6584"/>
</g>
<g id="lady">
<path id="Vector_38" d="M707.677 614.796V633.443L724.032 634.478L722.941 612.724L707.677 614.796Z" fill="#A0616A"/>
<path id="Vector_39" d="M710.948 623.083L700.044 621.012C700.044 621.012 684.78 646.909 674.966 648.981C666.38 650.794 646.107 657.365 653.59 666.614C654.713 667.941 656.167 668.981 657.821 669.638C659.475 670.295 661.275 670.548 663.059 670.376L709.857 666.592C709.857 666.592 728.393 667.627 728.393 657.268V623.083H710.948Z" fill="#2F2E41"/>
<path id="Vector_40" d="M709.042 518.27L704.345 619.418L734.091 626.855L709.042 518.27Z" fill="#2F2E41"/>
<path id="Vector_41" d="M720.001 655.116V681.892L743.486 683.379L741.92 652.142L720.001 655.116Z" fill="#A0616A"/>
<path id="Vector_42" d="M671.467 388.862L683.992 406.711L712.173 567.357L716.87 664.042H763.838L752.879 429.023C752.879 429.023 774.798 403.736 759.141 378.449L671.467 388.862Z" fill="#2F2E41"/>
<path id="Vector_43" d="M724.698 667.017L709.042 664.042C709.042 664.042 687.123 701.228 673.033 704.203C660.955 706.753 632.774 715.86 641.729 728.714C643.291 730.857 645.429 732.564 647.92 733.657C650.412 734.75 653.166 735.188 655.896 734.926L723.132 729.49C723.132 729.49 749.748 730.977 749.748 716.103V667.017H724.698Z" fill="#2F2E41"/>
<path id="Vector_44" d="M726.264 185.08C744.422 185.08 759.141 171.095 759.141 153.843C759.141 136.592 744.422 122.606 726.264 122.606C708.106 122.606 693.386 136.592 693.386 153.843C693.386 171.095 708.106 185.08 726.264 185.08Z" fill="#A0616A"/>
<path id="Vector_45" d="M707.476 170.205V214.829C707.476 216.316 743.485 211.854 743.485 211.854C743.485 211.854 745.051 170.205 745.051 165.743L707.476 170.205Z" fill="#A0616A"/>
<path id="Vector_46" d="M746.617 189.542C746.617 189.542 726.264 185.08 690.254 207.392H683.992L682.426 241.603C682.426 241.603 660.508 263.915 663.639 272.84C663.639 272.84 637.024 302.589 647.983 314.489C647.983 314.489 622.933 342.75 633.892 354.65C633.892 354.65 607.277 387.374 622.933 391.837C622.933 391.837 657.376 391.837 676.164 394.811C694.951 397.786 773.232 381.424 773.232 381.424C773.232 381.424 774.798 342.75 773.232 342.75H771.666C771.666 342.75 777.929 307.051 774.798 305.564C774.798 305.564 776.363 265.403 771.666 263.915L746.617 189.542Z" fill="#3F3D56"/>
<path id="Vector_47" d="M741.593 223.798C735.85 224.541 730.398 226.65 725.742 229.929C721.085 233.208 717.376 237.55 714.957 242.554C710.432 252.031 708.92 262.558 710.607 272.84C715.304 302.589 726.264 311.514 726.264 311.514C726.264 311.514 715.304 315.976 718.436 320.438C721.567 324.901 715.304 324.901 715.304 324.901C715.304 324.901 715.304 326.388 710.607 329.363C705.911 332.338 702.779 330.851 701.214 332.338C699.648 333.826 693.386 332.338 693.386 332.338C693.386 332.338 674.598 363.575 693.386 366.55C712.173 369.525 720.001 354.65 727.829 356.137C735.657 357.625 773.232 345.725 770.101 317.464C766.97 289.202 752.879 222.266 741.92 223.754L741.593 223.798Z" fill="#D0CDE1"/>
<path id="Vector_48" d="M697.218 134.465C698.019 131.393 699.57 128.544 701.744 126.146C703.918 123.749 706.655 121.871 709.734 120.664C715.895 118.308 724.803 111.531 730.39 114.941C732.883 116.464 735.026 118.485 737.618 119.851C741.808 122.058 746.764 122.368 751.491 123.105C763.38 124.96 773.339 137.424 781.647 145.714C789.954 154.004 794.75 165.699 793.257 177.057C792.273 184.55 788.728 191.487 786.382 198.701C784.036 205.916 782.986 214.108 786.786 220.74C791.145 228.346 800.567 231.836 806.929 238.039C811.35 242.546 814.14 248.279 814.889 254.399C815.638 260.519 814.309 266.706 811.094 272.057C809.673 274.305 807.896 276.415 807.151 278.94C806.406 281.465 807.067 284.638 809.514 285.85C810.633 286.265 811.789 286.58 812.969 286.791C816.891 287.917 819.281 291.74 820.327 295.504C821.373 299.268 821.464 303.245 822.753 306.941C825.898 315.965 835.295 321.425 844 326.113C826.802 325.673 809.33 325.261 792.687 329.403C785.534 331.183 777.277 333.623 771.294 329.495C767.193 326.665 765.629 321.502 765.514 316.688C765.398 311.873 766.449 307.085 766.342 302.271C766.11 291.865 760.237 281.899 751.578 275.523C746.454 271.75 740.428 269.136 735.583 265.043C731.464 261.486 728.364 256.994 726.572 251.988C724.78 246.981 724.356 241.625 725.338 236.42C726.088 232.683 727.578 229.009 727.356 225.211C726.919 217.716 720.046 211.852 718.574 204.477C717.027 196.73 721.667 189.187 722.957 181.397C723.553 176.656 723.464 171.859 722.692 167.14C721.72 159.311 720.253 151.191 715.368 144.819C710.773 138.825 704.411 134.848 696.62 134.409C694.113 134.268 697.626 132.223 696.62 134.409" fill="#2F2E41"/>
</g>
</g>
</g>
<defs>
<clipPath id="clip0">
<rect width="974.915" height="732" fill="white"/>
</clipPath>
</defs>
</svg>
